<mxfile host="app.diagrams.net" modified="2021-10-14T07:07:57.205Z" agent="5.0 (Windows NT 10.0; Win64; x64) AppleWebKit/537.36 (KHTML, like Gecko) Chrome/94.0.4606.81 Safari/537.36 Edg/94.0.992.47" etag="p29kqoWByLeIuMsduSUt" version="15.3.3" type="github">
  <diagram id="F_MXYTnieQ5TJMR97EJS" name="Page-1">
    <mxGraphModel dx="1308" dy="887" grid="1" gridSize="10" guides="1" tooltips="1" connect="1" arrows="1" fold="1" page="1" pageScale="1" pageWidth="827" pageHeight="1169" math="0" shadow="0">
      <root>
        <mxCell id="0" />
        <mxCell id="1" parent="0" />
        <mxCell id="0piI9dH6yJna6jwJGLCU-21" style="edgeStyle=none;curved=1;rounded=0;orthogonalLoop=1;jettySize=auto;html=1;exitX=0.5;exitY=0;exitDx=0;exitDy=0;entryX=0.5;entryY=1;entryDx=0;entryDy=0;endArrow=open;startSize=14;endSize=14;sourcePerimeterSpacing=8;targetPerimeterSpacing=8;" edge="1" parent="1" source="0piI9dH6yJna6jwJGLCU-1" target="0piI9dH6yJna6jwJGLCU-41">
          <mxGeometry relative="1" as="geometry">
            <mxPoint x="105" y="280" as="targetPoint" />
          </mxGeometry>
        </mxCell>
        <mxCell id="0piI9dH6yJna6jwJGLCU-22" style="edgeStyle=none;curved=1;rounded=0;orthogonalLoop=1;jettySize=auto;html=1;exitX=0.5;exitY=0;exitDx=0;exitDy=0;entryX=0.5;entryY=1;entryDx=0;entryDy=0;endArrow=open;startSize=14;endSize=14;sourcePerimeterSpacing=8;targetPerimeterSpacing=8;" edge="1" parent="1" source="0piI9dH6yJna6jwJGLCU-1" target="0piI9dH6yJna6jwJGLCU-11">
          <mxGeometry relative="1" as="geometry" />
        </mxCell>
        <mxCell id="0piI9dH6yJna6jwJGLCU-1" value="LOT平台" style="rounded=0;whiteSpace=wrap;html=1;hachureGap=4;pointerEvents=0;" vertex="1" parent="1">
          <mxGeometry x="40" y="360" width="460" height="60" as="geometry" />
        </mxCell>
        <mxCell id="0piI9dH6yJna6jwJGLCU-5" style="edgeStyle=none;curved=1;rounded=0;orthogonalLoop=1;jettySize=auto;html=1;exitX=0.5;exitY=0;exitDx=0;exitDy=0;entryX=0.25;entryY=1;entryDx=0;entryDy=0;endArrow=open;startSize=14;endSize=14;sourcePerimeterSpacing=8;targetPerimeterSpacing=8;" edge="1" parent="1" source="0piI9dH6yJna6jwJGLCU-2" target="0piI9dH6yJna6jwJGLCU-1">
          <mxGeometry relative="1" as="geometry" />
        </mxCell>
        <mxCell id="0piI9dH6yJna6jwJGLCU-2" value="边缘终端1&lt;br&gt;（树莓派）" style="rounded=0;whiteSpace=wrap;html=1;hachureGap=4;pointerEvents=0;" vertex="1" parent="1">
          <mxGeometry x="40" y="510" width="120" height="60" as="geometry" />
        </mxCell>
        <mxCell id="0piI9dH6yJna6jwJGLCU-6" style="edgeStyle=none;curved=1;rounded=0;orthogonalLoop=1;jettySize=auto;html=1;exitX=0.5;exitY=0;exitDx=0;exitDy=0;entryX=0.5;entryY=1;entryDx=0;entryDy=0;endArrow=open;startSize=14;endSize=14;sourcePerimeterSpacing=8;targetPerimeterSpacing=8;" edge="1" parent="1" source="0piI9dH6yJna6jwJGLCU-3" target="0piI9dH6yJna6jwJGLCU-1">
          <mxGeometry relative="1" as="geometry" />
        </mxCell>
        <mxCell id="0piI9dH6yJna6jwJGLCU-3" value="边缘终端&lt;br&gt;（工控机）" style="rounded=0;whiteSpace=wrap;html=1;hachureGap=4;pointerEvents=0;" vertex="1" parent="1">
          <mxGeometry x="210" y="510" width="120" height="60" as="geometry" />
        </mxCell>
        <mxCell id="0piI9dH6yJna6jwJGLCU-7" style="edgeStyle=none;curved=1;rounded=0;orthogonalLoop=1;jettySize=auto;html=1;exitX=0.5;exitY=0;exitDx=0;exitDy=0;entryX=0.75;entryY=1;entryDx=0;entryDy=0;endArrow=open;startSize=14;endSize=14;sourcePerimeterSpacing=8;targetPerimeterSpacing=8;" edge="1" parent="1" source="0piI9dH6yJna6jwJGLCU-4" target="0piI9dH6yJna6jwJGLCU-1">
          <mxGeometry relative="1" as="geometry" />
        </mxCell>
        <mxCell id="0piI9dH6yJna6jwJGLCU-4" value="边缘终端&lt;br&gt;（其他）" style="rounded=0;whiteSpace=wrap;html=1;hachureGap=4;pointerEvents=0;" vertex="1" parent="1">
          <mxGeometry x="380" y="510" width="120" height="60" as="geometry" />
        </mxCell>
        <mxCell id="0piI9dH6yJna6jwJGLCU-39" value="" style="group" vertex="1" connectable="0" parent="1">
          <mxGeometry x="290" y="130" width="210" height="200" as="geometry" />
        </mxCell>
        <mxCell id="0piI9dH6yJna6jwJGLCU-11" value="租户2" style="rounded=0;whiteSpace=wrap;html=1;hachureGap=4;pointerEvents=0;" vertex="1" parent="0piI9dH6yJna6jwJGLCU-39">
          <mxGeometry y="140" width="210" height="60" as="geometry" />
        </mxCell>
        <mxCell id="0piI9dH6yJna6jwJGLCU-17" value="设备1" style="rounded=0;whiteSpace=wrap;html=1;hachureGap=4;pointerEvents=0;" vertex="1" parent="0piI9dH6yJna6jwJGLCU-39">
          <mxGeometry y="90" width="85.9090909090909" height="30" as="geometry" />
        </mxCell>
        <mxCell id="0piI9dH6yJna6jwJGLCU-26" style="edgeStyle=none;curved=1;rounded=0;orthogonalLoop=1;jettySize=auto;html=1;exitX=0.25;exitY=0;exitDx=0;exitDy=0;entryX=0.5;entryY=1;entryDx=0;entryDy=0;endArrow=open;startSize=14;endSize=14;sourcePerimeterSpacing=8;targetPerimeterSpacing=8;" edge="1" parent="0piI9dH6yJna6jwJGLCU-39" source="0piI9dH6yJna6jwJGLCU-11" target="0piI9dH6yJna6jwJGLCU-17">
          <mxGeometry relative="1" as="geometry" />
        </mxCell>
        <mxCell id="0piI9dH6yJna6jwJGLCU-18" value="设备2" style="rounded=0;whiteSpace=wrap;html=1;hachureGap=4;pointerEvents=0;" vertex="1" parent="0piI9dH6yJna6jwJGLCU-39">
          <mxGeometry x="124.0909090909091" y="90" width="85.9090909090909" height="30" as="geometry" />
        </mxCell>
        <mxCell id="0piI9dH6yJna6jwJGLCU-27" style="edgeStyle=none;curved=1;rounded=0;orthogonalLoop=1;jettySize=auto;html=1;exitX=0.75;exitY=0;exitDx=0;exitDy=0;entryX=0.5;entryY=1;entryDx=0;entryDy=0;endArrow=open;startSize=14;endSize=14;sourcePerimeterSpacing=8;targetPerimeterSpacing=8;" edge="1" parent="0piI9dH6yJna6jwJGLCU-39" source="0piI9dH6yJna6jwJGLCU-11" target="0piI9dH6yJna6jwJGLCU-18">
          <mxGeometry relative="1" as="geometry" />
        </mxCell>
        <mxCell id="0piI9dH6yJna6jwJGLCU-33" value="数据列表" style="rounded=0;whiteSpace=wrap;html=1;hachureGap=4;pointerEvents=0;" vertex="1" parent="0piI9dH6yJna6jwJGLCU-39">
          <mxGeometry x="9.545454545454547" width="66.81818181818183" height="60" as="geometry" />
        </mxCell>
        <mxCell id="0piI9dH6yJna6jwJGLCU-34" style="edgeStyle=none;curved=1;rounded=0;orthogonalLoop=1;jettySize=auto;html=1;exitX=0.5;exitY=0;exitDx=0;exitDy=0;entryX=0.5;entryY=1;entryDx=0;entryDy=0;endArrow=open;startSize=14;endSize=14;sourcePerimeterSpacing=8;targetPerimeterSpacing=8;" edge="1" target="0piI9dH6yJna6jwJGLCU-33" parent="0piI9dH6yJna6jwJGLCU-39">
          <mxGeometry relative="1" as="geometry">
            <mxPoint x="42.95454545454545" y="89.99999999999989" as="sourcePoint" />
          </mxGeometry>
        </mxCell>
        <mxCell id="0piI9dH6yJna6jwJGLCU-35" style="edgeStyle=none;curved=1;rounded=0;orthogonalLoop=1;jettySize=auto;html=1;exitX=0.5;exitY=0;exitDx=0;exitDy=0;entryX=0.5;entryY=1;entryDx=0;entryDy=0;endArrow=open;startSize=14;endSize=14;sourcePerimeterSpacing=8;targetPerimeterSpacing=8;" edge="1" target="0piI9dH6yJna6jwJGLCU-36" parent="0piI9dH6yJna6jwJGLCU-39">
          <mxGeometry relative="1" as="geometry">
            <mxPoint x="167.04545454545456" y="89.99999999999989" as="sourcePoint" />
          </mxGeometry>
        </mxCell>
        <mxCell id="0piI9dH6yJna6jwJGLCU-36" value="数据列表" style="rounded=0;whiteSpace=wrap;html=1;hachureGap=4;pointerEvents=0;" vertex="1" parent="0piI9dH6yJna6jwJGLCU-39">
          <mxGeometry x="133.63636363636365" width="66.81818181818183" height="60" as="geometry" />
        </mxCell>
        <mxCell id="0piI9dH6yJna6jwJGLCU-40" value="" style="group" vertex="1" connectable="0" parent="1">
          <mxGeometry x="40" y="130" width="210" height="200" as="geometry" />
        </mxCell>
        <mxCell id="0piI9dH6yJna6jwJGLCU-41" value="租户2" style="rounded=0;whiteSpace=wrap;html=1;hachureGap=4;pointerEvents=0;" vertex="1" parent="0piI9dH6yJna6jwJGLCU-40">
          <mxGeometry y="140" width="210" height="60" as="geometry" />
        </mxCell>
        <mxCell id="0piI9dH6yJna6jwJGLCU-42" value="设备1" style="rounded=0;whiteSpace=wrap;html=1;hachureGap=4;pointerEvents=0;" vertex="1" parent="0piI9dH6yJna6jwJGLCU-40">
          <mxGeometry y="90" width="85.9090909090909" height="30" as="geometry" />
        </mxCell>
        <mxCell id="0piI9dH6yJna6jwJGLCU-43" style="edgeStyle=none;curved=1;rounded=0;orthogonalLoop=1;jettySize=auto;html=1;exitX=0.25;exitY=0;exitDx=0;exitDy=0;entryX=0.5;entryY=1;entryDx=0;entryDy=0;endArrow=open;startSize=14;endSize=14;sourcePerimeterSpacing=8;targetPerimeterSpacing=8;" edge="1" parent="0piI9dH6yJna6jwJGLCU-40" source="0piI9dH6yJna6jwJGLCU-41" target="0piI9dH6yJna6jwJGLCU-42">
          <mxGeometry relative="1" as="geometry" />
        </mxCell>
        <mxCell id="0piI9dH6yJna6jwJGLCU-44" value="设备2" style="rounded=0;whiteSpace=wrap;html=1;hachureGap=4;pointerEvents=0;" vertex="1" parent="0piI9dH6yJna6jwJGLCU-40">
          <mxGeometry x="124.0909090909091" y="90" width="85.9090909090909" height="30" as="geometry" />
        </mxCell>
        <mxCell id="0piI9dH6yJna6jwJGLCU-45" style="edgeStyle=none;curved=1;rounded=0;orthogonalLoop=1;jettySize=auto;html=1;exitX=0.75;exitY=0;exitDx=0;exitDy=0;entryX=0.5;entryY=1;entryDx=0;entryDy=0;endArrow=open;startSize=14;endSize=14;sourcePerimeterSpacing=8;targetPerimeterSpacing=8;" edge="1" parent="0piI9dH6yJna6jwJGLCU-40" source="0piI9dH6yJna6jwJGLCU-41" target="0piI9dH6yJna6jwJGLCU-44">
          <mxGeometry relative="1" as="geometry" />
        </mxCell>
        <mxCell id="0piI9dH6yJna6jwJGLCU-46" value="数据列表" style="rounded=0;whiteSpace=wrap;html=1;hachureGap=4;pointerEvents=0;" vertex="1" parent="0piI9dH6yJna6jwJGLCU-40">
          <mxGeometry x="9.545454545454547" width="66.81818181818183" height="60" as="geometry" />
        </mxCell>
        <mxCell id="0piI9dH6yJna6jwJGLCU-47" style="edgeStyle=none;curved=1;rounded=0;orthogonalLoop=1;jettySize=auto;html=1;exitX=0.5;exitY=0;exitDx=0;exitDy=0;entryX=0.5;entryY=1;entryDx=0;entryDy=0;endArrow=open;startSize=14;endSize=14;sourcePerimeterSpacing=8;targetPerimeterSpacing=8;" edge="1" parent="0piI9dH6yJna6jwJGLCU-40" target="0piI9dH6yJna6jwJGLCU-46">
          <mxGeometry relative="1" as="geometry">
            <mxPoint x="42.95454545454545" y="89.99999999999989" as="sourcePoint" />
          </mxGeometry>
        </mxCell>
        <mxCell id="0piI9dH6yJna6jwJGLCU-48" style="edgeStyle=none;curved=1;rounded=0;orthogonalLoop=1;jettySize=auto;html=1;exitX=0.5;exitY=0;exitDx=0;exitDy=0;entryX=0.5;entryY=1;entryDx=0;entryDy=0;endArrow=open;startSize=14;endSize=14;sourcePerimeterSpacing=8;targetPerimeterSpacing=8;" edge="1" parent="0piI9dH6yJna6jwJGLCU-40" target="0piI9dH6yJna6jwJGLCU-49">
          <mxGeometry relative="1" as="geometry">
            <mxPoint x="167.04545454545456" y="89.99999999999989" as="sourcePoint" />
          </mxGeometry>
        </mxCell>
        <mxCell id="0piI9dH6yJna6jwJGLCU-49" value="数据列表" style="rounded=0;whiteSpace=wrap;html=1;hachureGap=4;pointerEvents=0;" vertex="1" parent="0piI9dH6yJna6jwJGLCU-40">
          <mxGeometry x="133.63636363636365" width="66.81818181818183" height="60" as="geometry" />
        </mxCell>
      </root>
    </mxGraphModel>
  </diagram>
</mxfile>
